<svg width="32" height="32" viewBox="0 0 32 32" fill="none" xmlns="http://www.w3.org/2000/svg">
<path d="M13 27.8C15.3734 26.8667 14.8534 24.2933 13.6534 22.6667C12.4667 21 10.8267 19.8533 9.17336 18.7467C7.99369 18.0031 6.94041 17.0759 6.05335 16C5.68002 15.56 4.92002 14.7467 5.69336 14.5867C6.48002 14.4267 7.84002 15.2 8.53336 15.4933C9.74669 16 10.9467 16.5867 12.0667 17.28L13.4134 15.0133C11.3334 13.64 8.66669 12.4267 6.18669 12.0667C4.77335 11.8533 3.28002 12.1467 2.80002 13.68C2.37335 15 3.05335 16.3333 3.82669 17.3733C5.65335 19.8133 8.49336 20.9867 10.6134 23.0933C11.0667 23.5333 11.6134 24.0533 11.88 24.6667C12.16 25.2533 12.0934 25.2933 11.4667 25.2933C9.81336 25.2933 7.74669 24 6.40002 23.1467L5.05335 25.4133C7.09335 26.6667 10.5067 28.6267 13 27.8M25.28 9.77332L17.72 17.3333H14.6667V14.28L22.2267 6.70666L25.28 9.77332M29.8134 8.73332C29.8 9.13332 29.3867 9.54666 28.96 9.95999L25.6 13.3333L24.44 12.1733L27.9067 8.71999L27.12 7.93332L26.2267 8.82666L23.1734 5.77332L26.04 2.90666C26.36 2.58666 26.88 2.58666 27.1867 2.90666L29.0934 4.81332C29.4134 5.10666 29.4134 5.63999 29.0934 5.95999C28.8134 6.23999 28.5467 6.50666 28.5467 6.77332C28.52 7.03999 28.7867 7.33332 29.0534 7.55999C29.44 7.95999 29.8267 8.33332 29.8134 8.73332V8.73332Z" fill="black"/>
</svg>
