<svg width="36" height="36" viewBox="0 0 36 36" fill="none" xmlns="http://www.w3.org/2000/svg">
<path d="M21.638 4.98961C22.0448 4.57277 22.5303 4.24082 23.0663 4.013C23.6023 3.78517 24.1782 3.66601 24.7606 3.66241C25.343 3.65881 25.9203 3.77084 26.4591 3.99202C26.9979 4.2132 27.4874 4.53912 27.8993 4.9509C28.3112 5.36267 28.6373 5.8521 28.8586 6.39083C29.08 6.92955 29.1922 7.50685 29.1887 8.08926C29.1853 8.67167 29.0663 9.24761 28.8386 9.78368C28.611 10.3198 28.2792 10.8053 27.8624 11.2122L25.5728 13.5L25.7276 13.6548C26.0621 13.9891 26.3274 14.386 26.5084 14.8229C26.6894 15.2598 26.7826 15.728 26.7826 16.2009C26.7826 16.6738 26.6894 17.142 26.5084 17.5789C26.3274 18.0158 26.0621 18.4127 25.7276 18.747L23.1356 21.3372C22.9659 21.5012 22.7386 21.5919 22.5026 21.5898C22.2666 21.5878 22.0409 21.4931 21.874 21.3262C21.7071 21.1594 21.6125 20.9336 21.6104 20.6977C21.6084 20.4617 21.6991 20.2344 21.863 20.0646L24.455 17.4726C24.7925 17.1351 24.9821 16.6773 24.9821 16.2C24.9821 15.7227 24.7925 15.265 24.455 14.9274L24.3002 14.7726L12.3374 26.7372C12.2216 26.8524 12.0766 26.9339 11.918 26.973L4.71804 28.773C4.56169 28.8118 4.39778 28.808 4.24342 28.7619C4.08907 28.7158 3.94992 28.6291 3.8405 28.5108C3.73108 28.3926 3.65541 28.2471 3.62138 28.0897C3.58735 27.9322 3.59621 27.7685 3.64704 27.6156L5.89704 20.8656C5.94092 20.7335 6.01486 20.6133 6.11304 20.5146L21.6398 4.98961H21.638ZM26.588 6.26221C26.1004 5.77527 25.4394 5.50178 24.7502 5.50178C24.0611 5.50178 23.4001 5.77527 22.9124 6.26221L7.53684 21.636L5.87184 26.6292L11.2394 25.2882L26.588 9.93961C27.0755 9.45187 27.3494 8.7905 27.3494 8.10091C27.3494 7.41132 27.0755 6.74995 26.588 6.26221V6.26221ZM5.79084 30.3606L5.88264 30.429C7.22004 31.401 9.20184 32.4 11.7002 32.4C13.0376 32.4 14.2634 31.932 15.3524 31.3128C16.4378 30.6936 17.4458 29.8908 18.3422 29.1618L18.5528 28.9908C19.388 28.3104 20.1044 27.729 20.7632 27.3402C21.4886 26.9118 21.9224 26.8578 22.2158 26.955C22.6928 27.1134 22.9646 27.4824 23.438 29.0592C23.5946 29.5848 23.8754 30.1572 24.2858 30.6198C24.698 31.0824 25.31 31.5018 26.1002 31.5018C26.9534 31.5018 27.7976 31.0896 28.4492 30.7062C28.8794 30.4524 29.3402 30.1338 29.7146 29.8782C29.9 29.7522 30.062 29.6388 30.1898 29.5542C30.6722 29.2428 31.079 29.0412 31.358 28.9188C31.4966 28.8576 31.6028 28.8162 31.6712 28.7928L31.7432 28.7676L31.754 28.764C31.9832 28.6969 32.1763 28.5416 32.2909 28.3321C32.4055 28.1227 32.4322 27.8763 32.3651 27.6471C32.2981 27.418 32.1427 27.2248 31.9333 27.1102C31.7238 26.9956 31.4774 26.9689 31.2482 27.036H31.2464L31.241 27.0396L31.2284 27.0432L31.1906 27.0558L31.0646 27.0972C30.9186 27.1496 30.7745 27.2072 30.6326 27.27C30.1387 27.4895 29.6631 27.7483 29.2106 28.044C29 28.1826 28.7966 28.3212 28.595 28.4616C28.2505 28.7059 27.8969 28.9371 27.5348 29.1546C26.921 29.5182 26.4368 29.7 26.1002 29.7C25.9922 29.7 25.8302 29.646 25.6322 29.4228C25.4158 29.1648 25.2558 28.8644 25.1624 28.5408C24.7304 27.1008 24.2624 25.74 22.7864 25.2468C21.728 24.894 20.6984 25.2882 19.8488 25.7886C19.0658 26.2512 18.2432 26.9226 17.4422 27.5742L17.2082 27.765C16.3046 28.4976 15.401 29.2122 14.4614 29.7486C13.5254 30.2814 12.6128 30.6 11.7002 30.6C10.3574 30.6 9.18744 30.24 8.21904 29.754L5.79084 30.3606V30.3606ZM31.5002 27.9L31.2482 27.036L31.5002 27.9Z" fill="black"/>
</svg>
