<svg width="36" height="36" viewBox="0 0 36 36" fill="none" xmlns="http://www.w3.org/2000/svg">
<path d="M26.9333 31.158L30.9607 16.908C31.0238 16.6849 31.0343 16.4502 30.9914 16.2224C30.9485 15.9946 30.8533 15.7798 30.7135 15.5949C30.5736 15.41 30.3927 15.2601 30.1851 15.1569C29.9775 15.0536 29.7488 15 29.517 15H20.9063C20.7828 15 20.661 14.9722 20.5498 14.9185C20.4386 14.8649 20.341 14.7869 20.2641 14.6903C20.1873 14.5937 20.1332 14.481 20.106 14.3606C20.0787 14.2403 20.079 14.1153 20.1068 13.995L20.4818 12.372C20.8253 10.8833 20.9355 9.3495 20.8088 7.827L20.7398 6.99975C20.6658 6.11227 20.2797 5.27972 19.65 4.65C19.074 4.07386 18.2927 3.75012 17.478 3.75H17.298C16.8053 3.75 16.3515 4.017 16.113 4.4475L14.1188 8.03625C13.2247 9.64576 11.892 10.9683 10.2758 11.85L5.2815 14.5725C5.04472 14.7017 4.84717 14.8924 4.70963 15.1244C4.5721 15.3564 4.49968 15.6213 4.5 15.891V30.75C4.5 31.1478 4.65804 31.5294 4.93934 31.8107C5.22065 32.092 5.60218 32.25 6 32.25H25.4903C25.8169 32.2499 26.1345 32.1432 26.395 31.9461C26.6554 31.749 26.8444 31.4723 26.9333 31.158V31.158Z" stroke="black" stroke-width="4" stroke-linecap="round" stroke-linejoin="round"/>
</svg>
