<svg width="36" height="36" viewBox="0 0 36 36" fill="none" xmlns="http://www.w3.org/2000/svg">
<path d="M12 18H15C15.3978 18 15.7794 17.842 16.0607 17.5607C16.342 17.2794 16.5 16.8978 16.5 16.5C16.5 16.1022 16.342 15.7206 16.0607 15.4393C15.7794 15.158 15.3978 15 15 15H12C11.6022 15 11.2206 15.158 10.9393 15.4393C10.658 15.7206 10.5 16.1022 10.5 16.5C10.5 16.8978 10.658 17.2794 10.9393 17.5607C11.2206 17.842 11.6022 18 12 18ZM25.5 9H18V6H19.5C19.8978 6 20.2794 5.84196 20.5607 5.56066C20.842 5.27936 21 4.89782 21 4.5C21 4.10218 20.842 3.72064 20.5607 3.43934C20.2794 3.15804 19.8978 3 19.5 3H16.5C16.1022 3 15.7206 3.15804 15.4393 3.43934C15.158 3.72064 15 4.10218 15 4.5V9H10.5C8.9087 9 7.38258 9.63214 6.25736 10.7574C5.13214 11.8826 4.5 13.4087 4.5 15V24C4.5 24.3978 4.65804 24.7794 4.93934 25.0607C5.22064 25.342 5.60218 25.5 6 25.5H15V31.5C15 31.8978 15.158 32.2794 15.4393 32.5607C15.7206 32.842 16.1022 33 16.5 33C16.8978 33 17.2794 32.842 17.5607 32.5607C17.842 32.2794 18 31.8978 18 31.5V25.5H30C30.3978 25.5 30.7794 25.342 31.0607 25.0607C31.342 24.7794 31.5 24.3978 31.5 24V15C31.5 13.4087 30.8679 11.8826 29.7426 10.7574C28.6174 9.63214 27.0913 9 25.5 9ZM19.5 15V22.5H7.5V15C7.5 14.2044 7.81607 13.4413 8.37868 12.8787C8.94129 12.3161 9.70435 12 10.5 12H20.34C19.7947 12.906 19.5044 13.9426 19.5 15ZM28.5 22.5H22.5V15C22.5 14.2044 22.8161 13.4413 23.3787 12.8787C23.9413 12.3161 24.7044 12 25.5 12C26.2956 12 27.0587 12.3161 27.6213 12.8787C28.1839 13.4413 28.5 14.2044 28.5 15V22.5Z" fill="black"/>
</svg>
