<svg width="36" height="36" viewBox="0 0 36 36" fill="none" xmlns="http://www.w3.org/2000/svg">
<path d="M28.7154 27.5344C28.793 27.6119 28.8545 27.704 28.8965 27.8054C28.9385 27.9067 28.9601 28.0153 28.9601 28.125C28.9601 28.2347 28.9385 28.3433 28.8965 28.4446C28.8545 28.546 28.793 28.6381 28.7154 28.7156C28.6379 28.7932 28.5458 28.8547 28.4445 28.8967C28.3431 28.9387 28.2345 28.9603 28.1248 28.9603C28.0151 28.9603 27.9065 28.9387 27.8052 28.8967C27.7038 28.8547 27.6118 28.7932 27.5342 28.7156L17.9998 19.1953L8.46545 28.7156C8.3088 28.8723 8.09635 28.9603 7.87482 28.9603C7.65329 28.9603 7.44084 28.8723 7.2842 28.7156C7.12755 28.559 7.03955 28.3465 7.03955 28.125C7.03955 27.9035 7.12755 27.691 7.2842 27.5344L16.8045 18L7.2842 8.46563C7.12755 8.30899 7.03955 8.09653 7.03955 7.875C7.03955 7.65348 7.12755 7.44102 7.2842 7.28438C7.44084 7.12774 7.65329 7.03973 7.87482 7.03973C8.09635 7.03973 8.3088 7.12774 8.46545 7.28438L17.9998 16.8047L27.5342 7.28438C27.6908 7.12774 27.9033 7.03973 28.1248 7.03973C28.3463 7.03973 28.5588 7.12774 28.7154 7.28438C28.8721 7.44102 28.9601 7.65348 28.9601 7.875C28.9601 8.09653 28.8721 8.30899 28.7154 8.46563L19.1951 18L28.7154 27.5344Z" fill="black"/>
</svg>
