<svg width="36" height="36" viewBox="0 0 36 36" fill="none" xmlns="http://www.w3.org/2000/svg">
<g clip-path="url(#clip0_227_2)">
<path d="M35.4374 0.84868C35.8793 1.16447 36.0601 1.58552 35.9798 2.11184L30.8369 32.4276C30.77 32.8092 30.5557 33.1053 30.1941 33.3158C30.0066 33.421 29.799 33.4737 29.5713 33.4737C29.424 33.4737 29.2633 33.4408 29.0892 33.375L18.5021 29.1316L12.5155 35.5855C12.2744 35.8618 11.9597 36 11.5713 36C11.3838 36 11.2298 35.9737 11.1093 35.921C10.8548 35.8289 10.6539 35.6743 10.5066 35.4572C10.3593 35.2401 10.2856 35 10.2856 34.7368V25.8158L0.803447 22.0066C0.307911 21.8224 0.0400538 21.4605 -0.000124823 20.921C-0.0403034 20.4079 0.173982 20.0197 0.642732 19.7566L34.0713 0.809206C34.5401 0.53289 34.9954 0.546048 35.4374 0.84868ZM28.5668 30.4342L33.0066 4.32236L4.19854 20.6447L10.9485 23.3487L28.2856 10.7368L18.6829 26.4671L28.5668 30.4342Z" fill="black"/>
</g>
<defs>
<clipPath id="clip0_227_2">
<rect width="36" height="36" fill="black"/>
</clipPath>
</defs>
</svg>
