<svg width="36" height="36" viewBox="0 0 36 36" fill="none" xmlns="http://www.w3.org/2000/svg">
<path d="M27 30L24.9 27.9L27.2625 25.5H21V22.5H27.2625L24.9 20.1L27 18L33 24L27 30ZM6 25.5C5.175 25.5 4.4685 25.206 3.8805 24.618C3.2925 24.03 2.999 23.324 3 22.5V7.5C3 6.675 3.294 5.9685 3.882 5.3805C4.47 4.7925 5.176 4.499 6 4.5H25.5C26.325 4.5 27.0315 4.794 27.6195 5.382C28.2075 5.97 28.501 6.676 28.5 7.5V15.15C28.25 15.1 28 15.0625 27.75 15.0375C27.5 15.0125 27.25 15 27 15C26.75 15 26.5 15.0065 26.25 15.0195C26 15.0325 25.75 15.0635 25.5 15.1125V9.6L15.6 16.5L6 9.6375V22.5H18.1125C18.0625 22.75 18.0315 23 18.0195 23.25C18.0075 23.5 18.001 23.75 18 24C18 24.25 18.0125 24.5 18.0375 24.75C18.0625 25 18.1 25.25 18.15 25.5H6ZM8.175 7.5L15.6 12.825L23.25 7.5H8.175Z" fill="black"/>
</svg>
